<?xml version="1.0" standalone="no"?>
<!DOCTYPE svg PUBLIC "-//W3C//DTD SVG 1.1//EN" "http://www.w3.org/Graphics/SVG/1.1/DTD/svg11.dtd" >
<svg xmlns="http://www.w3.org/2000/svg">
<metadata>Generated by IcoMoon</metadata>
<defs>
<font id="icomoon" horiz-adv-x="1024">
<font-face units-per-em="1024" ascent="960" descent="-64" />
<missing-glyph horiz-adv-x="1024" />
<glyph unicode="&#x20;" horiz-adv-x="512" d="" />
<glyph unicode="&#xe900;" glyph-name="boy_hair_style" horiz-adv-x="648" d="M82.233 541.002c0 0-25.453-50.906-11.748-115.518 0 0 11.748-25.453-31.327-121.392 0 0-3.916-33.285 37.201-29.369 0 0-11.748-45.033 15.663-46.99 0 0-15.663-35.243 17.621-45.033 0 0-25.453-72.444 39.159-78.317 0 0 46.99-9.79 93.981 23.495 0 0 70.486-15.663 95.939-178.172l283.901 129.224c0 0-101.813 152.719-64.612 191.878s258.447 483.61-250.616 493.4c0 0-193.836 82.233-111.602 152.719 0 0-68.528-21.537-48.948-148.803 0 0-45.033 123.35 33.285 184.046 0 0-170.34-62.654-109.644-291.732 0 0-33.285 9.79-54.822 133.14 0 0-31.327-162.509 66.57-252.574z" />
<glyph unicode="&#xe901;" glyph-name="comb_long_hair" d="M920-70c0 0-84 24-44 90 0 0 62 38 64 70 0 0 40 10-62 116 0 0-18 22 30 70 0 0 50 40 40 74 0 0-14 40-44 52 0 0-12 6 16 26 0 0 24 14-30 32 0 0 42 54 4 62 0 0-16 22-8 50s10 52 10 52l-22 98c0 0-52 144-72 144 0 0-62 104-158 90 0 0-122 6-162-150 0 0-24-90-18-118 0 0-48-58-44-98 0 0 68 40 68 68 0 0-6 92 52 164 0 0 62-146 144-110l90-186c0 0-68-102-4-166 0 0-42-82 8-78 0 0-60-62 44-180 0 0-26-54-8-74 0 0-4-106 106-98zM530 514l-84-82c0 0 34-24-46-108 0 0-24-82 12-122 0 0-96-42-78-88 0 0-14-60 20-60 0 0-38-82 38-74 0 0 38 4 18 60 0 0 74 18 60 82 0 0 68 50 50 96l-36 66c0 0 98 148 46 230zM632 624l-68 68c0 0-6 6-20-6s-448-448-448-448-12-28 18-20l202 202 46-46 8 8-40 40v10l44-44 8 8-40 40 3.5 3.5 43-43 7.5 7.5-43.5 44.5 3 3 44.5-44.5 7 7-45 45 4 4 44.5-44.5 6 6-42 42v7l44-44 8 8-42.5 42.5 3.5 3.5 44-44 6.5 6.5-42 42 4.5 4.5 40.5-40.5 6.5 6.5-40 40v7.5l43.5-43.5 8.5 8.5-41 41 4 4 42.5-42.5 7.5 7.5-43.5 43.5 4 4 44-44 6.5 6.5-44 44 4.5 4.5 44-44 6.5 6.5-43.5 43.5 4 4 43.5-43.5 7 7-44 44 4.5 4.5 45-45 5 5-43.5 43.5 5.5 5.5 42.5-42.5 6.5 6.5-41.5 41.5v8l44.5-44.5 7 7-41 41 5 5 42-42 7 7-42 42 4 4 41.5-41.5 8.5 8.5-41.5 41.5 2.5 2.5 42-42 7.5 7.5-43.5 43.5 4.5 4.5 45-45 5.5 5.5-44 44 4.5 4.5 42.5-42.5 8.5 8.5-43 43 4 4 44.5-44.5 7.5 7.5-43 43 3.5 3.5 46.5-46.5 16.5 11z" />
<glyph unicode="&#xe902;" glyph-name="comb_scissors" d="M544 552c0 0-142-132-382-94 0 0-162-12-142-190 0 0 8-82 116-88 0 0 80-4 126 62l278 252c0 0-138-182-270-310 0 0-96-80-16-194 0 0 84-82 174-10 0 0 92 56 66 164 0 0-12 144 38 238l370 542 6 24-364-396zM140 224c0 0-62-6-80 58 0 0-20 70 48 116 0 0 120 60 140-56 0 0 10-90-108-118zM352-2c0 0-124-12-70 136 0 0 98 118 168 6 0 0 32-128-98-142zM589 518c-12.704 0-23 10.296-23 23 0 12.702 10.296 23 23 23 12.702 0 23-10.298 23-23 0-12.704-10.298-23-23-23zM4 800l118 122c0 0 20 28 44-4l848-838c0 0 6-28-42-38l-392 382-86-94-16 16 84 92-8 8-82-82-12 12 86 86-12 16-92-84-14 14 86 86-12 12-84-84-10 10 84 86-10 10-86-86-10 10 80 80-10 10-84-76-12 12 80 80-10 10-80-80-12 12 80 80-14 14-80-80-12 12 80 80-10 10-80-80-10 10 82 82-12 12-82-82-10 10 82 82-12 12-84-84-14 14 82 82-10 10-82-82-16 16 78 78v14l-86-86-12 12 84 84-10 10-84-84-12 12 84 84-8 8-80-80-12 12 76 76-8 8-76-76-14 14 76 76v12l-82-82-10 10 78 78-10 10-78-78-14 14 80 80-12 12-84-84-12 12 86 86-8 8-86-86-10 10 84 84-10 10-88-88c0 0-28-14-32 12zM664 546l118 180 198 134 34 4-350-318z" />
<glyph unicode="&#xe903;" glyph-name="cosmetics" d="M118 646h98v-136h-98v136zM48 490l246-2v-406h-246v408zM462 832v-172h120v174l-120-2zM820 642h96v-136h-100l4 136zM376 636v-554h304v552l-304 2zM744 484v-404h252v402l-252 2z" />
<glyph unicode="&#xe904;" glyph-name="dresser_comb_scissors" d="M860.876 344l-40-54-106 78-86 26c0 0-12-82-82-82 0 0-72-8-86 80l-70-20-102-78-42 48-60-52 88-106 124 98 14-264 282 2 14 262 128-100 86 114-62 48zM226.876 378c0 0-56-46-150-18 0 0-46-4-56-36 0 0-18-58 36-68 0 0 30-4 62 24l105.334 75.334 32.666-3.334 168 120-198-94zM99.542 290.666c-16.666-24-42-18.666-42-18.666-30.666 8-20.666 40.666-20.666 40.666 23.334 50 61.334 22.666 61.334 22.666 21.998-21.332 1.332-44.666 1.332-44.666zM249.208 362.666c-4.602 0-8.334 3.73-8.334 8.334s3.73 8.334 8.334 8.334 8.334-3.73 8.334-8.334-3.732-8.334-8.334-8.334zM226.876 350l-121.334-102c0 0-42.666-61.334 24-80.666 0 0 47.334-12 70.666 46.666 0 0-1.334 65.334 7.334 70 8.666 4.666 42.666 62 42.666 62l-23.332 4zM178.208 207.334c-13.332-20-32.666-23.334-32.666-23.334-24.666-8.666-33.334 16.666-33.334 16.666-10.666 16.668 6.668 37.334 6.668 37.334 17.334 20.666 48 11.334 48 11.334 24.666-16.668 11.332-42 11.332-42zM713.542 603.334c0 0 19.334 26.666 2 42 0 0 15.334 104.666-88 96.666 0 0-13.334 32.666-68 31.334 0 0-59.334 0-95.334-40 0 0 0 12.666 12.666 23.334 0 0-13.334 2-30.666-33.334 0 0-6 0.666-3.334 9.334 0 0-8.666-1.334-16-32.666 0 0-17.334 5.334-12-31.334 0 0-31.334-4-15.334-66 0 0-16-172.666 162-182.666 0 0 123.334-4 152 133.334 0.002-0.002 6.668 47.998 0.002 49.998zM651.542 485.334c-57.334-52-115.334-37.334-115.334-37.334-84 9.334-107.334 92.666-107.334 92.666-9.334 98 34 116.666 34 116.666 32 22 96.666-5.334 96.666-5.334 22.666-12.666 95.334 9.334 95.334 9.334 38.666-30 22.666-63.334 22.666-63.334-10.666-13.334-6-20-6-20 1.334-12 12.666-27.334 12.666-27.334-5.998-41.33-32.664-65.33-32.664-65.33zM1000.876 301.334l-35.334-41.334c0 0-5.334-8.666-15.334 2l-207.334 189.334c0 0-10.666 6 4.666 22.666l30.666 30 2.666-10.666-26.572-31.904 2-1.714 28.572 32.572 5.142-4.286-27.428-32.572 2.286-2.858 29.428 32.572 4-4.572-28.572-31.714 3.142-3.428 29.714 32.858 4-4.572-29.142-32.572 3.142-2.286 29.714 31.714 4.572-4.856-29.428-31.428 2.286-2.572 30.572 32.856 4.856-5.142-28.286-32.286 1.714-2 29.428 31.144 4.572-3.714-29.428-32.286 2.858-2.572 30.286 31.142 4-3.714-28.572-31.714 2.856-2.858 29.428 30.858 4.572-3.714-28.856-32.572 2.572-2 29.718 30.856 4-4-28-31.428 2.858-2.856 28.858 30.856 4.286-4.572-28.286-31.142 4-1.714 27.714 30 5.142-4.286-28.856-31.428 2.856-2.572 28.858 31.428 5.428-4.572-28.858-30.572 2.858-2.572 29.142 30.572 4.572-4-28.286-31.428 3.428-2.858 28.572 30.856 4.286-4.572-28.858-31.14 2.856-2.858 29.144 31.714 5.428-4.856-29.142-30.858 3.142-2 28.286 30.858 4.858-4.286-29.428-31.142 3.428-3.142 30.572 32.286 3.428-5.428-28.858-31.144 3.428-3.428 29.142 31.714 4-4.858-28.286-30.856 2.572-3.428 29.428 32.286 4.856-4.572-28.856-31.428 3.142-2.572 28.572 30.572 5.142-4.856-28.286-30.286 1.428-2.572 29.718 31.14 4.286-5.428-29.714-31.142 2.858-3.428 30.572 33.714 5.142-5.144-29.714-31.714 4-3.428 27.714 32 4.858-4.286-28-32 2.286-2.286 29.428 32.286 4.286-4.856-29.142-31.714 2.572-2.856 29.714 31.428 4.858-4-30-32.856 3.142-2.286 30 31.714 4.286-4.572-30-32 3.142-2.572 27.142 28.572 11.714 0.188z" />
<glyph unicode="&#xe905;" glyph-name="dresser_combing_hair" d="M126.938 942c-60.2 0-109-48.8-109-109s48.8-109 109-109 109 48.8 109 109-48.802 109-109 109zM345.938 782l-148-110c0 0-170 56-164-50 0 0-16-170 12-238 0 0-12-76 40-80v-374h166v48h-50l30 218-30 118c0 0 52 224 2 262l186 162-44 44zM435.938 898c0 0-38 24-52 12 0 0-32 4-46-244 0 0 12-36 42 0 0 0-28 116 32 112l-33.334 8.666v4l35.334-4.666v5.334l-35.334 6v4.666l35.334-6-0.666 6.666-35.334 5.334-1.334 5.334 37.334-6.666v6l-36 5.334v4l37.334-4.666 0.666 4.664-38 7.334 1.334 4 37.334-6.666 1.332 5.332-37.334 7.334v4l38.666-7.334 1.334 4.666-38 8 0.666 4 37.334-7.334 1.334 4.668-37.334 9.334 2 4.666 36-8 2 4.666-34.666 7.334 0.666 4.666 34-7.332 2 5.332-35.334 6.668 1.334 4 34.666-6 1.334 4-32 6 2 4.666 30.666-6.666 2 5.332-28.666 5.334 32-0.666 1.334 4.666zM531.938 902c-46.392 0-84-39.846-84-89s37.608-89 84-89 84 39.846 84 89-37.608 89-84 89zM611.938 846c0 0 90-6 28 58 0 0-96 98-158 28s-98-152-52-244c0 0-20-44-30-24 0 0 76-48 88 72 0 0-76 154 56 160l68-50zM599.938 714c0 0-110 22-112-2s-18-50-18-50-12-164 8-222c0 0 0-78 150-58 0 0 126-8 224 20 0 0 64 26-8 90 0 0-48 50-144 42 0 0-62-6-100 180zM453.938 646l-72-14 68-298 304-4 2 42c0 0-194-18-234 2 0 0-84-12-68 272zM843.938 388l-66-12 64-184 46 8-44 188zM887.938 200c0 0-62 12-62-26 0 0 10-18 84 4 0 0 32 0 34 16s-56 6-56 6zM643.938 340l-80 4-20-352-106 2-34-54h392l-40 54h-96l-16 346z" />
<glyph unicode="&#xe906;" glyph-name="dresser_shampoo" d="M932 908c54.124 0 98-44.772 98-100s-43.876-100-98-100-98 44.772-98 100 43.876 100 98 100zM692 634l2-52c0 0 158 28 160 18s-40-172 2-244l-12-130 16-192h-48v-46h150v220l2 118c0 0 50 10 32 50 0 0 30 112 20 172 0 0-2 102-10 102s8 52-120 30l-194-46zM190 182v-58l104-6-14-70-92-2-32-46 358-2-30 48h-98l-14 72h100v44l104 104v-282h178v490h-78l-82 2c0 0-22-58-66-28l-36 22c0 0-144-94-234-40 0 0-40-54 84-78l-74-62-96 2c0 0-26 20-54-44l-112-168h106l90 126 178 4 196 184 4-40-178-172h-212zM605 650c53.572 0 97-43.876 97-98s-43.428-98-97-98-97 43.876-97 98 43.428 98 97 98zM618 782c9.942 0 18-8.058 18-18s-8.058-18-18-18-18 8.058-18 18 8.058 18 18 18zM644 832c5.522 0 10-4.478 10-10s-4.478-10-10-10-10 4.478-10 10 4.478 10 10 10zM711 854c6.076 0 11-4.924 11-11s-4.924-11-11-11-11 4.924-11 11 4.924 11 11 11zM680 790c8.836 0 16-7.164 16-16s-7.164-16-16-16-16 7.164-16 16 7.164 16 16 16zM697 732c10.494 0 19-8.506 19-19s-8.506-19-19-19-19 8.506-19 19 8.506 19 19 19zM730 616c2 62-48 54-48 54-14 36-50 14-50 14-76 26-68-34-68-34s28-62 42-60 54-28 54-28l38-52c50-20 58 32 58 32 32 44-26 74-26 74zM588 654c0 0-14 34 34 14 0 0 56 16 56-20 0 0 28 12 32-4s-18-10-18-10l1.998-51.952c-0.086 2.012-3.632 66.046-105.998 71.952zM754 566c-2-12-24-42-24-42-14-12-32 2-32 2 12 22-2 54-2 54l46 8c0 0 14-10 12-22z" />
<glyph unicode="&#xe907;" glyph-name="dresser_straightner" d="M890 940c56.334 0 102-53.278 102-119s-45.666-119-102-119-102 53.278-102 119 45.666 119 102 119zM600 642c0 0 196-2 204 28 0 0 120 44 164-4 0 0 42-74-4-308 0 0 14-20-34-34v-354h-158v46l46 4-20 214 22 118c0 0-26 220 0 246l-196-10-24 54zM632 474l16 8-10 22 5.334 6c0 0 8.666 0.666 0.666 17.334l-103.334 328c0 0-10.666 20.666-24.666 13.334v-9.334l-7.334-2 64.666-194.666 2-2.666 6.666-0.666 32.666-104-4-1.334-44.664 100.664 6 4-83.334 191.334c0 0-5.334-7.334-12.666 2.666 0 0-14-2-8-24l61.334-142 82-180 6-6 6.666-2 8-24.666zM437.054 713.31c55.464 0 100.428-44.962 100.428-100.428 0-55.464-44.962-100.428-100.428-100.428s-100.428 44.962-100.428 100.428c0 55.466 44.962 100.428 100.428 100.428zM375.598 500.462l89.936 5.996c0 0 47.966 0 32.976-59.958 0 0 14.99-134.904 0-209.85 0 0 0-77.944-14.99-77.944 0 0 14.99-47.966-107.922-44.968 0 0-143.898-5.996-245.824 23.982 0 0-107.924 14.99 8.994 122.912 0 0 47.966 41.97 110.92 26.98 0 0 68.952 0 80.942 98.93 0 0.002 26.98 110.922 44.968 113.92zM522.492 386.544l59.958-17.988-62.956-275.802h-284.796v17.988l152.89-5.996c0 0 104.924-8.994 113.918 56.958l20.986 224.84zM99.794 134.724c0 0 44.968-29.978 92.934-20.984l-23.982-44.968v-44.968l-143.896-2.998-2.998 44.968h29.978l47.964 68.95zM315.64 383.546l-59.958-38.972-62.956-5.996v-29.978l56.96-8.994c0.002 0 71.95 23.982 65.954 83.94zM336.626 89.756h80.942l11.992-71.948 104.926-5.996 29.978-41.97h-365.74l29.978 47.966h92.934l14.99 71.948z" />
<glyph unicode="&#xe908;" glyph-name="dresser_washing_hair" d="M870 934c57.438 0 104-46.562 104-104s-46.562-104-104-104-104 46.562-104 104 46.562 104 104 104zM574 728c0 0 174-56 188-48 0 0 80 18 98 18 0 0 104 14 96-70 0 0 24-120-10-204 0 0 14-102-38-88v-344h-158v42h50l-32 186 32 144c0 0-44 196-2 248 0 0-38 42-222 52l-2 64zM500 718c53.020 0 96-42.98 96-96s-42.98-96-96-96-96 42.98-96 96 42.98 96 96 96zM434 514c0 0 76 28 126-4 0 0 28-284-20-356 0 0-26-68-364 2 0 0-90 64 98 144 0 0 84-4 98 42 0 0 58 100 62 172zM574 490l40 2c0 0 56-36-40-378h-284l2 14c0 0 228-24 244 8 0 0 60 8 38 354zM390 420c0 0-52-80-104-64 0 0-32-32 38-40 0 0 46-6 66 104zM394 116h80l12-78 100 2 32-48h-364l32 48 94-2 14 78zM512 874c9.942 0 18-8.058 18-18s-8.058-18-18-18-18 8.058-18 18 8.058 18 18 18zM592 834c9.942 0 18-8.058 18-18s-8.058-18-18-18-18 8.058-18 18 8.058 18 18 18zM549 900c4.97 0 9-4.030 9-9s-4.030-9-9-9-9 4.030-9 9 4.030 9 9 9zM521 972c6.076 0 11-4.924 11-11s-4.924-11-11-11-11 4.924-11 11 4.924 11 11 11zM178 144l56-6-64-110h-50l58 116zM166 30c0 0 26-22 6-42 0 0-94-22-120 10 0 0 26 30 68 32h46zM490 740c11.046 0 20-8.058 20-18s-8.954-18-20-18-20 8.058-20 18 8.954 18 20 18zM518 752c15.464 0 28-6.716 28-15s-12.536-15-28-15-28 6.716-28 15 12.536 15 28 15zM487 758c9.388 0 17-5.82 17-13s-7.612-13-17-13-17 5.82-17 13 7.612 13 17 13zM565 718c10.494 0 19-4.924 19-11s-8.506-11-19-11-19 4.924-19 11 8.506 11 19 11zM581 730c10.494 0 19-4.924 19-11s-8.506-11-19-11-19 4.924-19 11 8.506 11 19 11zM568 754c7.732 0 14-4.478 14-10s-6.268-10-14-10-14 4.478-14 10 6.268 10 14 10zM531 806c9.388 0 17-6.268 17-14s-7.612-14-17-14-17 6.268-17 14 7.612 14 17 14zM600 656c9.942 0 18-7.612 18-17s-8.058-17-18-17-18 7.612-18 17 8.058 17 18 17z" />
<glyph unicode="&#xe909;" glyph-name="foam_bottles" d="M76 940v-234h254v234h-254zM138 718h-30l2 210h28v-210zM76 686v-660h254v660h-254zM138 68h-28v572h28v-572zM76 14h254v-42h-254v42zM400 10h254v-38h-252l-2 38zM531 802c4.97 0 9-4.030 9-9s-4.030-9-9-9-9 4.030-9 9 4.030 9 9 9zM630 690v50h-16v18h-42v72h-78v-72h-50v-18h-16v-54h-28v-662h254v666h-24zM460 68h-28v568h28v-568zM533 774c-10.494 0-19 8.506-19 19s8.506 19 19 19 19-8.506 19-19-8.506-19-19-19zM472 818h28v-30h-28v30zM704 204v-236h254v236h-254zM764-22h-26l-4 212h30v-212zM772 262l-2-46 132-2v46l-130 2z" />
<glyph unicode="&#xe90a;" glyph-name="girl_hair_cut" d="M218 442c0 0 26-178-4-492 0 0-136 190-152 278 0 0-26 108-10 396 0 0-2 90 20 148 0 0 18 80 70 122 0 0 48 54 104 56 0 0 86 16 154-30 0 0 62-12 74-38 0 0 38-40 40-130 0 0 30-118-6-210l-8-94-62-12c0 0-70 22-102 10 0 0 148 84 118 224 0 0-214-2-344-6 0 0-4-150 108-222zM278 476l290-22-132-18-158 40zM898 396l-252 22-20-24c114-26 164-96 164-96 30-52 58-52 58-52 80-30 108 26 108 26 58 96-58 124-58 124zM885 264c-33.69 0-61 21.938-61 49s27.31 49 61 49 61-21.938 61-49c0-27.062-27.31-49-61-49zM962 564c-66 60-128 2-128 2-32-60-116-96-116-96l-438-76h332l36 36 242-2c64-8 82 34 82 34 36 54-10 102-10 102zM596 408c-7.732 0-14 6.268-14 14s6.268 14 14 14 14-6.268 14-14-6.268-14-14-14zM901 454c-33.69 0-61 24.176-61 54s27.31 54 61 54 61-24.176 61-54-27.31-54-61-54z" />
<glyph unicode="&#xe90b;" glyph-name="girl_hair_style" d="M418-44l428-14c0 0-154 194-170 230 0 0-24 42-14 80 0 0 134 30 126 126 0 0 22-2 16-34 0 0 20 0 16 72 0 0 26-8 12-50 0 0 62 40 8 120 0 0 28 26 46-10 0 0 30 10-38 44 0 0 28 2 32 28 0 0-22-22-28-4 0 0 50 12 48 40 0 0-40-24-62-12l48 42c0 0-18 24-36 12 0 0 24 46 36 36 0 0-14 22-50-6l8 60-14-12c0 0-2 24-10 24s28 16 16 40c0 0-24-42-34-32s28 26-8 54c0 0 8-30-10-32 0 0-24-2-24 30 0 0-18-4-20-32 0 0-10 38-34 34 0 0 34 52 10 66 0 0-6-36-34-36 0 0-4 70-28 72 0 0 10-36-6-52 0 0-56 38-46 98 0 0-16-14-14-22s-14 26 0 38c0 0-36-18-4-92 0 0-62 38-70 82 0 0-26-12 38-80 0 0-60 30-78 62l6-26c0 0-28 8-32 18s-4-28 32-50c0 0-58 38-76 84 0 0-22-12 8-78 0 0-64 34-86 54 0 0-24-8 62-70 0 0-40 8-56 26s24-36 24-36-66 46-104 42c0 0 66-46 68-58s-76 26-122-4l132-22c0 0-150 8-172-26 0 0 70 8 88-14 0 0-114-30-114-76 0 0 70 46 72 28l-52-32h28c0 0-20-18-12-30 0 0 40 46 46 28 0 0-44-40-32-76 0 0 32 48 58 32 0 0-38-28-36-40s16 26 36 8c0 0-32-36-20-54 0 0 22 40 42 38 0 0-14-52 10-120 0 0-6-4-30 12 0 0 0-26 28-22 0 0 24-20-32-68 0 0-24-16-16-38s36-14 36-14l2.666-9.334c0 0-36-38 14-36 0 0-38-22-8-44.666 0 0-27.334-80 34.666-69.334 0 0 96.666 20 96.666 6.666 0 0 17.334 4.666 26.666-52 0 0 37.334-103.334 36.666-108-0.664-4.666-1.33-21.332-1.33-21.332l-42-52z" />
<glyph unicode="&#xe90c;" glyph-name="girl_makeup" d="M907.826 672.212c0 0 80-14 40 100 0 0-20 48-68 50 0 0-8 82-122 76 0 0-42 74-200 50 0 0-64 42-166-34 0 0-68 86-116 6 0 0-92 2-46-72 0 0-150 44-110-152 0 0-96-62-34-154 0 0 34-36 110-26 0 0-22-112 98-102 0 0 10-52 50-48 0 0 4-68 62-42 0 0 38-58-36-154l-178-234 518 14-44 50c0 0-28 2 14 102l34 96c0 0-4 46 76 32 0 0 72-26 84-6 0 0 56-2 22 78 0 0 42 32-8 54 0 0 42-2 32 30 0 0-16 8-12 28 0 0 36-8 44 26 0 0 20 14-36 60 0 0-56 34-14 110l6 62zM867.826 582.212c0 0 34-18 56 8 0 0 16-32-58-22s2 14 2 14z" />
<glyph unicode="&#xe90d;" glyph-name="hair_brush" horiz-adv-x="1022" d="M156 404l110 110c0 0 292-12 290 28l418 418 48-48-422-422c0 0-32-106-40-274l-108-108-296 296zM167 367l241-241-164-164-8 8 109 118-119-113-4 5 118 123-123-116-6 4 112 115-117-109-6 5 119 125-125-118-4 5 112 117-117-112-6 6 113 119-120-114-5 5 116 120-122-115-5 5 115 122-120-115-5 5 111 118-118-110-5 5 115 123-123-116-6 6 111 119-118-112-6 6 114 123-121-117-7 7 117 122-124-115-6 6 112 114-118-108-5 5 120 127-126-120-6 5 115 115-120-109-7 5 116 124-122-117-8 8 113 118-118-111-6 6 110 120-117-113-9 9 163 167z" />
<glyph unicode="&#xe90e;" glyph-name="longhair_color" horiz-adv-x="781" d="M749.551-64c0 0-98.872 42.374-20.178 110.979 0 0 98.872 58.516-2.018 137.211 0 0-52.463 44.392 16.142 100.89 0 0 86.765 70.623-4.036 119.050 0 0-22.196 2.018 16.142 30.267 0 0 14.125 20.178-28.249 26.231 0 0 38.338 78.694 2.018 64.57 0 0 32.285 330.919-201.78 427.774 0 0-135.193 48.427-197.745-108.961 0 0-40.356-110.979-28.249-157.389 0 0-62.552-72.641-54.481-145.282 0 0-2.018-108.961 68.605-155.371l-8.071-16.142 28.249-46.409c0 0 129.139 129.139-12.107 296.617 0 0-24.214 88.783 52.463 201.78 0 0 56.498-141.246 141.246-106.943 0 0 62.552-191.691 88.783-187.656 0 0-68.605-102.908-2.018-163.442 0 0-28.249-70.623 4.036-74.659 0 0-36.32-90.801 50.445-181.602 0 0-64.57-157.389 90.801-171.513zM348.008 236.652l-141.246-96.854-14.125 18.16c0 0-54.481-28.249-4.036-94.837 0 0 52.463-60.534 22.196-80.712s52.463 20.178 34.303 64.57c0 0 96.854 30.267 102.908 189.673zM295.545 390.005l-34.303 48.427c0 0-8.071 30.267-54.481 24.214l-68.605 20.178c0 0-38.338 4.036-50.445 42.374l-54.481 82.73-24.214-24.214 70.623-117.032-12.107-129.139 48.427-70.623 179.584 123.086zM285.456 367.81l-149.317-100.89 68.101-99.881 8.071 4.54-42.374 63.056 3.027 2.522 42.878-63.056 3.027 2.018-41.365 62.552 2.522 2.522 41.869-63.561 3.531 3.531-42.878 63.056 4.54 3.531 41.869-64.57 4.036 2.522-41.869 63.561 3.027 2.522 40.86-64.065 4.54 3.531-36.825 55.994 2.522 2.018 37.834-56.498 3.027 2.522-37.329 57.003 3.531 2.522 36.32-58.012 4.036 3.531-36.32 54.985 2.018 1.513 37.329-54.985 3.531 3.531-38.338 53.472 4.036 2.522 37.329-54.481 4.036 2.522-37.329 53.472 3.027 2.522 37.329-53.976 5.549 3.531-38.338 53.472 4.036 2.522 37.329-53.472 4.036 3.027-35.816 52.463 3.027 2.018 36.32-52.967 4.036 3.531-35.816 52.463 3.531 3.027 35.312-53.976 5.045 3.531-35.816 52.463 3.531 3.531 35.816-53.976 3.027 4.54-34.807 51.958 3.531 2.018 35.816-53.472 4.036 4.036-35.816 50.445 4.54 2.522 35.312-51.454 3.531 3.027-34.807 50.949 4.036 2.018 33.798-50.949 3.531 3.531-33.294 48.932 3.027 1.009 34.303-49.941 3.531 5.045-32.285 46.914 4.036 2.018 32.789-48.932 4.036 3.531-32.789 48.932 2.522 4.54 34.807-50.445 6.053 3.531-68.101 100.89z" />
<glyph unicode="&#xe90f;" glyph-name="manicure" d="M498.51 699.82h74.946l-245.824-254.818c0 0-47.966-8.994-44.968 41.97l71.948 83.94c0 0 68.952-17.988 110.92 92.934l32.978 35.974zM960.18 819.734l-152.89-17.988c-38.972 2.998-119.914 41.97-119.914 41.97l-122.912-8.994c-89.936 2.998-95.932-32.976-95.932-32.976l-53.962-77.944c-47.966-77.944-56.958-143.898-56.958-143.898 47.966-20.984 95.932 86.938 95.932 86.938 20.984 32.976 56.958 50.964 56.958 50.964l74.946-2.998c62.956-11.992 56.96-29.978 56.96-29.978-8.994-35.974-56.96-23.984-56.96-23.984-158.886-44.968-140.9-83.94-140.9-83.94 0-17.988 38.972-35.974 68.952-5.996s137.902 35.974 137.902 35.974c92.934-20.986 170.878 44.968 170.878 50.962 0 5.996 167.88 35.974 167.88 35.974 17.986 74.95-29.98 125.914-29.98 125.914zM484 568.522c-10-6-26 14-26 14-4 12 32 28 32 28 14 6 22-26 22-26l-28-16zM711.358 301.104c0 0 8.994 26.982-254.818-5.996 0 0-5.996 23.982 95.93 59.958 0 0 119.916 23.982 122.912 80.942 0 0 14.99 23.982-236.83-68.952 0 0 59.958 68.952 77.944 68.952s71.948 38.972 65.952 74.946c0 0-26.98 14.99-137.902-65.954 0 0-71.948-83.94-86.938-71.948 0 0 83.94 116.916 62.956 131.906 0 0 20.986 41.97-56.96-35.974 0 0-131.906-185.868-302.784-242.828 0 0-44.968-86.938-2.998-173.876 0 0 62.956 56.96 95.932 56.96l131.906-11.992c0 0 77.944-14.988 137.902 14.99 0 0 158.886-14.99 170.878 17.986s-56.96 41.97-56.96 41.97h-92.934c0 0-80.942 11.992 2.998 53.96l95.932 26.982c0.002 0.004 176.876-20.982 167.882 47.968zM544 152.522c0 0 40 2 38-12s-34-18-34-18-20 14-4 30z" />
<glyph unicode="&#xe910;" glyph-name="pedicure" d="M539.502 939.13c0 0 158.886 29.978 179.872-44.968 0 0-2.998-35.974-125.91-131.906 0 0-32.976-56.958-17.988-59.958s65.954-50.964 47.966-86.938c0 0 17.988-47.964-125.91-83.94 0 0-74.946-38.972-125.91-98.93l-89.936-83.94c0 0-53.962-50.964-74.946-41.97l-116.916 11.992c0 0-17.986 11.992-2.998 26.98 0 0 104.926 8.994 122.914 53.96 0 0.004 305.78 506.642 329.762 539.618zM806.312 840.202c0 0 155.888 11.992 131.906-131.906l-119.916-191.864c0 0-29.978-44.968-11.992-62.956 0 0 77.944-35.974 65.954-74.946 0 0 32.976-65.954-95.932-110.92 0 0-92.934-92.934-134.904-176.874 0 0-59.958-107.922-80.942-104.924 0 0-116.916-38.972-143.898-14.99 0 0 14.99 29.978 44.968 38.972 0 0 53.962 17.988 65.954 65.954 0.002 0 263.814 770.45 278.802 764.454z" />
<glyph unicode="&#xe911;" glyph-name="salon_massage" horiz-adv-x="1020" d="M659.052 507.036l49.375-47.229-210.382-203.941v-40.788h-111.631l12.881-81.577h111.631l36.495-53.669-401.442 4.294 34.348 49.375h103.044l15.027 81.577h-113.778v70.843h238.289l236.143 221.115zM656.906 796.847c58.095 0 105.191-48.057 105.191-107.338s-47.095-107.338-105.191-107.338-105.191 48.057-105.191 107.338 47.095 107.338 105.191 107.338zM899.488 985.761c66.395 0 120.218-53.823 120.218-120.218s-53.823-120.218-120.218-120.218-120.218 53.823-120.218 120.218 53.823 120.218 120.218 120.218zM605.384 577.878l32.201-40.788 212.528 88.017c0 0-19.321-214.675 2.147-236.143l-8.587-182.474 25.761-158.86 2.147-17.174-85.87-2.147v-47.229h201.795l-30.055 231.849 10.734 163.153c0 0 88.017 373.535 12.881 345.627 0 0-64.403 77.283-375.681-143.832zM540.981 618.667l79.43-51.522c0 0 40.788-17.174-12.881-49.375l-216.822-208.235-191.061-2.147-103.044-139.539h-118.071l139.539 212.528c0 0 15.027 36.495 79.43 21.468h72.99l103.044 88.017c0 0-62.256-12.881-92.31 47.229 0 0-30.055 45.082 23.614 27.908 0 0 47.229-64.403 236.143 53.669z" />
<glyph unicode="&#xe912;" glyph-name="scissors" d="M512 526c0 0-118-104-298-92 0 0-134 12-166-126 0 0-18-98 50-138 0 0 100-68 190 40l258 284h16l8 48 330 322-388-338zM240 222c0 0-62-68-126-2 0 0-66 58 18 144 0 0 78 62 140-14 0 0 36-72-32-128zM580 534l-10-66-332-322c0 0-74-122 48-186 0 0 94-50 176 44 0 0 52 36 34 140 0 0-8 100 42 188 0 0 38 78 186 252l260 326 4 32-408-408zM406 22c0 0-26-28-90-18 0 0-64 16-40 106 0 0 8 60 98 72 0 0 78-12 78-70 0 0 10-46-46-90zM614 486c-9.942 0-18 8.058-18 18s8.058 18 18 18 18-8.058 18-18-8.058-18-18-18z" />
<glyph unicode="&#xe913;" glyph-name="shaving_brush" horiz-adv-x="1032" d="M796.334 829.237l-182.933-373.995-3.185-2.032h82.457v-38.619h-65.042c193.095-193.093 0-400.416 0-400.416h71.14v-60.978h-384.156v65.042h75.204c-180.899 180.899 0 398.384 0 398.384h-67.074v36.587h85.096l-3.794 2.032-164.638 369.931c0 0 5.862 6.774 16.815 17.28l29.934-31.507-17.507 42.967c5.593 4.969 11.956 10.367 19.004 15.998l28.99-24.414-15.837 34.553c7.325 5.45 15.27 11.011 23.736 16.539l20.557-24.669-3.303 13.212 1.269-1.016-5.71 20.555c8.317 5.046 17.097 9.997 26.295 14.739l24.132-31.23-7.558 39.309c9.446 4.346 19.283 8.417 29.477 12.121l20.766-29.071-1.479 35.467c9.735 2.929 19.768 5.47 30.061 7.571l12.069-30.843 2.915 33.523c9.85 1.537 19.937 2.611 30.22 3.217l13.614-32.674 6.921 33.201c12.548-0.097 25.375-0.972 38.45-2.728l1.382-34.537 15.861 31.725c10.675-2.048 21.504-4.708 32.471-8.025l2.483-29.795 14.256 24.234c9.568-3.45 19.237-7.438 28.99-11.958l-6.661-34.634 25.329 25.329c10.262-5.452 20.615-11.548 31.045-18.294l-5.559-37.525 22.13 26.278c7.112-5.050 14.262-10.457 21.438-16.153l-11.045-34.517 23.164 24.613c4.305-3.625 8.621-7.416 12.944-11.278l-13.751-31.628 25.564 20.77c4.344-4.098 8.693-8.279 13.055-12.64zM365.428 796.716l-18.294-12.198 109.759-203.257-91.466 215.455z" />
<glyph unicode="&#xe914;" glyph-name="woman_long_hair" horiz-adv-x="900" d="M64.251 175.937c0 0 42.165-54.212 88.345-12.047 0 0 26.102 36.141-52.204 82.322 0 0-108.424 78.306-94.369 204.8 0 0 36.141 331.294 321.255 471.843 0 0 72.282 42.165 84.329-40.157 0 0-4.016-291.137 46.18-325.271 0 0 202.792-240.941 32.125-337.318 0 0 144.565 160.627-62.243 309.208 0 0-96.376 58.227-68.267 271.059 0 0 28.11 106.416 2.008 102.4s-42.165-102.4-42.165-102.4-4.016-40.157-46.18-86.337c0 0-54.212-46.18 6.024-58.227 0 0-42.165-34.133-2.008-46.18 0 0-36.141-10.039 4.016-36.141 0 0-48.188-86.337 94.369-52.204 0 0 116.455-8.031 76.298-281.098 0 0-82.322-218.855-291.137-192.753 0 0 164.643 32.125 72.282 194.761 0 0-42.165 82.322-52.204 94.369s-104.408 94.369-14.055 299.169c0 0 52.204 114.447 54.212 116.455s-88.345-120.471-104.408-208.816c0 0-56.22-114.447 80.314-315.231 0 0 58.227-118.463-36.141-148.58 0 0-36.141-24.094-74.29 20.078 0 0-20.078 42.165-22.086 76.298zM395.545 940.925c0 0 82.322-76.298 72.282-367.435 0 0 24.094-80.314 86.337-88.345 0 0 283.106-182.714-26.102-540.11 0 0 277.082 238.933 132.518 465.82 0 0-138.541 178.698-158.62 242.949 0 0-32.125 283.106-106.416 287.122zM425.663 946.949c0 0 78.306 44.173 114.447-102.4 0 0 22.086-202.792 66.259-220.863 0 0 124.486-158.62 130.51-174.682s88.345-64.251 36.141-252.988c0 0-38.149-261.020-244.957-252.988 0 0 208.816 92.361 188.737 291.137 0 0-8.031 170.667-110.431 285.114 0 0-114.447 114.447-110.431 275.075 0 0-20.078 124.486-70.275 152.596zM485.898 954.98c0 0 76.298 16.063 96.376-62.243 0 0 22.086-88.345 14.055-214.839 0 0-40.157 114.447-44.173 170.667 0 0-8.031 82.322-66.259 106.416zM570.227 946.949c0 0 68.267-80.314 62.243-321.255s160.627-196.769 160.627-196.769 116.455 22.086 4.016-230.902c0 0-34.133-68.267-42.165-66.259s-8.031-72.282-80.314-134.525c0 0 166.651 108.424 194.761 305.192 0 0 12.047 142.557-48.188 226.886 0 0-72.282 114.447-100.392 134.525 0 0-46.18 206.808-70.275 216.847 0 0-22.086 72.282-80.314 66.259zM638.494 922.855c0 0 110.431-186.729 100.392-246.965 0 0 94.369-40.157 146.573-220.863 0 0 24.094 305.192-246.965 467.827z" />
</font>
</defs>
</svg>
